<svg id="visual" viewBox="0 0 960 300" width="960" height="300" xmlns="http://www.w3.org/2000/svg" xmlns:xlink="http://www.w3.org/1999/xlink" version="1.1"><rect x="0" y="0" width="960" height="300" fill="#202731"></rect><path d="M0 130L20 129.7C40 129.3 80 128.7 120 140C160 151.3 200 174.7 240 182.8C280 191 320 184 360 184C400 184 440 191 480 190.7C520 190.3 560 182.7 600 178.3C640 174 680 173 720 165C760 157 800 142 840 145.7C880 149.3 920 171.7 940 182.8L960 194L960 301L940 301C920 301 880 301 840 301C800 301 760 301 720 301C680 301 640 301 600 301C560 301 520 301 480 301C440 301 400 301 360 301C320 301 280 301 240 301C200 301 160 301 120 301C80 301 40 301 20 301L0 301Z" fill="#4facf7"></path><path d="M0 157L20 158.3C40 159.7 80 162.3 120 171.7C160 181 200 197 240 200.5C280 204 320 195 360 184.5C400 174 440 162 480 161.8C520 161.7 560 173.3 600 184.5C640 195.7 680 206.3 720 202.3C760 198.3 800 179.7 840 169.3C880 159 920 157 940 156L960 155L960 301L940 301C920 301 880 301 840 301C800 301 760 301 720 301C680 301 640 301 600 301C560 301 520 301 480 301C440 301 400 301 360 301C320 301 280 301 240 301C200 301 160 301 120 301C80 301 40 301 20 301L0 301Z" fill="#1c93f9"></path><path d="M0 206L20 210C40 214 80 222 120 222.8C160 223.7 200 217.3 240 217.8C280 218.3 320 225.7 360 226.2C400 226.7 440 220.3 480 213.5C520 206.7 560 199.3 600 199.5C640 199.7 680 207.3 720 206C760 204.7 800 194.3 840 192.8C880 191.3 920 198.7 940 202.3L960 206L960 301L940 301C920 301 880 301 840 301C800 301 760 301 720 301C680 301 640 301 600 301C560 301 520 301 480 301C440 301 400 301 360 301C320 301 280 301 240 301C200 301 160 301 120 301C80 301 40 301 20 301L0 301Z" fill="#0078f6"></path><path d="M0 223L20 223.5C40 224 80 225 120 223.3C160 221.7 200 217.3 240 222.5C280 227.7 320 242.3 360 242.8C400 243.3 440 229.7 480 225.3C520 221 560 226 600 231C640 236 680 241 720 243.5C760 246 800 246 840 245C880 244 920 242 940 241L960 240L960 301L940 301C920 301 880 301 840 301C800 301 760 301 720 301C680 301 640 301 600 301C560 301 520 301 480 301C440 301 400 301 360 301C320 301 280 301 240 301C200 301 160 301 120 301C80 301 40 301 20 301L0 301Z" fill="#1559ed"></path><path d="M0 254L20 258.8C40 263.7 80 273.3 120 277.8C160 282.3 200 281.7 240 278.7C280 275.7 320 270.3 360 266.2C400 262 440 259 480 259.5C520 260 560 264 600 266.7C640 269.3 680 270.7 720 269.3C760 268 800 264 840 266C880 268 920 276 940 280L960 284L960 301L940 301C920 301 880 301 840 301C800 301 760 301 720 301C680 301 640 301 600 301C560 301 520 301 480 301C440 301 400 301 360 301C320 301 280 301 240 301C200 301 160 301 120 301C80 301 40 301 20 301L0 301Z" fill="#3c31dd"></path></svg>